<svg xmlns="http://www.w3.org/2000/svg" viewBox="0 0 48 48" width="48" height="48">
  <path fill="#FFC107" d="M43.6 24.5c0-1.6-.1-3.2-.4-4.7H24v9.1h11.1c-.5 2.6-2.1 4.8-4.5 6.3l7.3 5.7c4.3-4 6.7-9.8 6.7-16.4z"/>
  <path fill="#FF3D00" d="M24 44c6 0 11.1-2 14.8-5.3l-7.3-5.7c-2 1.3-4.6 2-7.5 2-5.8 0-10.7-3.9-12.5-9.1l-7.6 6c3 6 9.2 10.1 16.1 10.1z"/>
  <path fill="#4CAF50" d="M11.5 26c-1-2.6-1-5.4 0-8l-7.6-6C1 14.5 0 17.7 0 21s1 6.5 3.1 9.1l8.4-4.1z"/>
  <path fill="#1976D2" d="M24 9.5c3.2 0 6.1 1.1 8.4 3.3l6.2-6.2C34.9 2.5 29.6 0 24 0 14.8 0 6.9 5.2 3.1 12.9l8.4 6.5C13.7 13.4 18.5 9.5 24 9.5z"/>
</svg>
