<svg xmlns="http://www.w3.org/2000/svg" viewBox="0 0 24 24" width="22" height="22">
  <path fill="#0A66C2" d="M22.23 0H1.77C.79 0 0 .78 0 1.75v20.5C0 23.22.79 24 1.77 24h20.46c.98 0 1.77-.78 1.77-1.75V1.75C24 .78 23.21 0 22.23 0z"/>
  <path fill="#fff" d="M7.06 20.45H3.56V9h3.5v11.45zM5.31 7.49c-1.12 0-2.02-.9-2.02-2.01a2.02 2.02 0 1 1 4.04 0c0 1.11-.9 2.01-2.02 2.01zm15.14 12.96h-3.5v-5.66c0-1.35-.03-3.08-1.88-3.08-1.88 0-2.17 1.47-2.17 2.99v5.75h-3.5V9h3.36v1.56h.05c.47-.9 1.62-1.86 3.33-1.86 3.56 0 4.22 2.34 4.22 5.38v6.37z"/>
</svg>
